name ./resultDataOpenSim/trcMotMarkerGrf/sub10/grf-13-07.mot
datacolumns 19
datarows 10
range 1.48000000 1.51600000
endheader

                time	     ground_force_vx	     ground_force_vy	     ground_force_vz	     ground_force_px	     ground_force_py	     ground_force_pz	   l_ground_force_vx	   l_ground_force_vy	   l_ground_force_vz	   l_ground_force_px	   l_ground_force_py	   l_ground_force_pz	     ground_torque_x	     ground_torque_y	     ground_torque_z	   l_ground_torque_x	   l_ground_torque_y	   l_ground_torque_z	
          1.48000000	        -15.30053438	        444.41925889	        -13.76140457	          0.83735328	          0.00000000	          0.08251795	          0.00000000	          0.00000000	          0.00000000	          0.00000000	          0.00000000	          0.00000000	          0.00000000	          2.85812029	          0.00000000	          0.00000000	          0.00000000	          0.00000000	
          1.48400000	        -14.31202189	        446.82854691	        -12.36007640	          0.83795450	          0.00000000	          0.08222483	          0.00000000	          0.00000000	          0.00000000	          0.00000000	          0.00000000	          0.00000000	          0.00000000	          2.94638647	          0.00000000	          0.00000000	          0.00000000	          0.00000000	
          1.48800000	        -12.90875154	        449.42874324	        -11.16627421	          0.83841954	          0.00000000	          0.08193121	          0.00000000	          0.00000000	          0.00000000	          0.00000000	          0.00000000	          0.00000000	          0.00000000	          3.04541981	          0.00000000	          0.00000000	          0.00000000	          0.00000000	
          1.49200000	        -11.02938857	        452.14578148	        -10.30886463	          0.83873641	          0.00000000	          0.08165711	          0.00000000	          0.00000000	          0.00000000	          0.00000000	          0.00000000	          0.00000000	          0.00000000	          3.15683847	          0.00000000	          0.00000000	          0.00000000	          0.00000000	
          1.49600000	         -8.72231226	        454.91225809	         -9.86410031	          0.83889756	          0.00000000	          0.08141309	          0.00000000	          0.00000000	          0.00000000	          0.00000000	          0.00000000	          0.00000000	          0.00000000	          3.28169370	          0.00000000	          0.00000000	          0.00000000	          0.00000000	
          1.50000000	         -6.12702266	        457.68105443	         -9.83280351	          0.83892086	          0.00000000	          0.08119848	          0.00000000	          0.00000000	          0.00000000	          0.00000000	          0.00000000	          0.00000000	          0.00000000	          3.42119401	          0.00000000	          0.00000000	          0.00000000	          0.00000000	
          1.50400000	         -3.42499917	        460.42157804	        -10.13853813	          0.83881891	          0.00000000	          0.08101373	          0.00000000	          0.00000000	          0.00000000	          0.00000000	          0.00000000	          0.00000000	          0.00000000	          3.57621993	          0.00000000	          0.00000000	          0.00000000	          0.00000000	
          1.50800000	         -0.77596252	        463.11088587	        -10.65142650	          0.83860835	          0.00000000	          0.08085696	          0.00000000	          0.00000000	          0.00000000	          0.00000000	          0.00000000	          0.00000000	          0.00000000	          3.74554414	          0.00000000	          0.00000000	          0.00000000	          0.00000000	
          1.51200000	          1.73603335	        465.73476786	        -11.22513995	          0.83828943	          0.00000000	          0.08071689	          0.00000000	          0.00000000	          0.00000000	          0.00000000	          0.00000000	          0.00000000	          0.00000000	          3.92401386	          0.00000000	          0.00000000	          0.00000000	          0.00000000	
          1.51600000	          4.12599232	        468.29915953	        -11.73075446	          0.83784971	          0.00000000	          0.08058319	          0.00000000	          0.00000000	          0.00000000	          0.00000000	          0.00000000	          0.00000000	          0.00000000	          4.10233897	          0.00000000	          0.00000000	          0.00000000	          0.00000000	
